<?xml version="1.0" encoding="UTF-8"?>
<svg version="1.1" xmlns="http://www.w3.org/2000/svg" width="231" height="113">
<path d="M0 0 C76.23 0 152.46 0 231 0 C231 37.29 231 74.58 231 113 C154.77 113 78.54 113 0 113 C0 75.71 0 38.42 0 0 Z " fill="#FEFEFD" transform="translate(0,0)"/>
<path d="M0 0 C6.55858248 4.81342923 11.84075329 10.41780791 15 18 C15.1875 20.875 15.1875 20.875 15 23 C19.94982247 22.21055096 19.94982247 22.21055096 23.6953125 19.0859375 C24.71150977 17.64079265 25.69524157 16.17211864 26.640625 14.6796875 C27.08921875 14.12539063 27.5378125 13.57109375 28 13 C28.99 13 29.98 13 31 13 C30.5359375 14.3921875 30.5359375 14.3921875 30.0625 15.8125 C28.6216844 20.77871546 28.35305964 25.86205306 28 31 C28.66 31.33 29.32 31.66 30 32 C28.0625 32.5625 28.0625 32.5625 26 33 C25 32 25 32 24.9375 28.4375 C24.958125 27.303125 24.97875 26.16875 25 25 C23.060491 25.19188156 23.060491 25.19188156 21 26 C19.65768558 27.83983424 19.65768558 27.83983424 18.75 30.0625 C18.41484375 30.79597656 18.0796875 31.52945313 17.734375 32.28515625 C17.49203125 32.85105469 17.2496875 33.41695312 17 34 C16.34 34 15.68 34 15 34 C14.9175 34.99 14.835 35.98 14.75 37 C14.12225097 41.40321108 12.46519232 45.30221151 10 49 C9.01 49.66 8.02 50.32 7 51 C7.495 49.845 7.99 48.69 8.5 47.5 C11.09522053 39.70198021 11.4985967 29.21303124 8.75 21.375 C4.15379203 12.51088464 -1.38433117 6.17680856 -10.921875 2.6953125 C-18.78365884 0.91942732 -28.66402313 0.24625162 -35.9375 4.0625 C-36.948125 4.701875 -37.95875 5.34125 -39 6 C-39.66 5.67 -40.32 5.34 -41 5 C-28.34249877 -3.86886141 -14.54957191 -8.77593226 0 0 Z " fill="#F8D87C" transform="translate(88,32)"/>
<path d="M0 0 C0 3 0 3 -1.4375 5.375 C-5.44581088 12.10896227 -4.9225223 21.52253506 -3.38671875 28.9765625 C-0.5576667 37.82513941 4.68458725 44.57098333 12.875 49.0625 C17.95688239 51.10946801 22.77255424 51.48210197 28.1875 51.5625 C28.93563965 51.57740479 29.6837793 51.59230957 30.45458984 51.60766602 C35.52389329 51.51316874 38.99935387 50.33510008 43.36450195 47.75756836 C43.90421631 47.5075708 44.44393066 47.25757324 45 47 C45.99 47.495 45.99 47.495 47 48 C36.6175914 55.42630615 29.01918489 58.26371321 16 57 C7.15553601 55.13145127 -0.32410678 49.29527321 -5.4453125 41.91796875 C-6.48185079 39.97158018 -7.2831373 38.0839032 -8 36 C-8.22171875 35.37609375 -8.4434375 34.7521875 -8.671875 34.109375 C-11.11069771 26.00193734 -11.11171435 17.76624011 -7.2890625 10.1484375 C-5.13101071 6.55168451 -2.65239239 3.24476002 0 0 Z " fill="#F8D879" transform="translate(27,27)"/>
<path d="M0 0 C2.85799048 1.75058908 4.85319941 3.65118304 6.99609375 6.22265625 C5.39175566 5.74406384 3.78762959 5.26476067 2.18359375 4.78515625 C1.29027344 4.51832031 0.39695313 4.25148438 -0.5234375 3.9765625 C-2.3586368 3.41877752 -4.18424351 2.8292105 -6.00390625 2.22265625 C-16.45505741 1.16189049 -25.00287306 3.89920657 -33.18359375 10.45703125 C-40.22181026 17.2837992 -43.01658124 24.85428485 -43.37890625 34.53515625 C-43.3151253 40.0649642 -42.25579687 44.2308571 -39.87890625 49.19921875 C-39.00390625 51.22265625 -39.00390625 51.22265625 -39.00390625 54.22265625 C-46.45130514 44.94353466 -50.1748557 36.31098731 -49.00390625 24.22265625 C-46.90900557 14.28603276 -41.4537421 7.18545416 -33.3125 1.265625 C-23.14689505 -4.6401074 -10.6829838 -5.02622678 0 0 Z " fill="#DFA441" transform="translate(81.00390625,15.77734375)"/>
<path d="M0 0 C6.06306683 5.37014491 10.41868083 12.20586796 11.23828125 20.375 C11.5208424 30.36874172 9.37437698 38.68426091 2.875 46.4375 C-4.08302042 53.60287864 -12.14017918 57.12071557 -22.0625 57.3125 C-32.17908641 57.34533027 -39.14920105 54.14410353 -47 48 C-46.67 47.34 -46.34 46.68 -46 46 C-45.09507813 46.52400391 -45.09507813 46.52400391 -44.171875 47.05859375 C-43.37265625 47.51363281 -42.5734375 47.96867187 -41.75 48.4375 C-40.96109375 48.88996094 -40.1721875 49.34242187 -39.359375 49.80859375 C-32.657227 53.19295656 -24.39480116 52.98883213 -17.3125 50.8125 C-8.05723116 47.25913786 -1.38841267 41.80652676 3.375 33.0625 C6.30437104 25.88677178 6.33054372 16.46895626 4.12890625 9.07421875 C3.18712959 6.96643289 2.14548662 5.00115132 1 3 C0.505 1.515 0.505 1.515 0 0 Z " fill="#DFA544" transform="translate(78,42)"/>
<path d="M0 0 C1.32 0.33 2.64 0.66 4 1 C3.72285156 1.83402344 3.44570312 2.66804688 3.16015625 3.52734375 C1.05109376 10.07969803 -0.53417719 16.12911355 -1 23 C0.32 22.34 1.64 21.68 3 21 C2.67 21.99 2.34 22.98 2 24 C0.33388095 24.042721 -1.33382885 24.04063832 -3 24 C-4 23 -4 23 -4.09765625 21.15234375 C-4.04882812 18.07617188 -4.04882812 18.07617188 -4 15 C-5.65 15 -7.3 15 -9 15 C-9.4021875 16.3303125 -9.4021875 16.3303125 -9.8125 17.6875 C-10.91710819 20.76877548 -12.22849144 23.26221405 -14 26 C-14.75 24.4375 -14.75 24.4375 -15 22 C-13.86915563 19.49713591 -12.47860484 17.32992278 -11 15 C-11.99 14.67 -12.98 14.34 -14 14 C-14 13.34 -14 12.68 -14 12 C-12.02 12 -10.04 12 -8 12 C-7.79375 11.319375 -7.5875 10.63875 -7.375 9.9375 C-5.54591134 6.02990149 -2.89720966 3.16142061 0 0 Z " fill="#E4B360" transform="translate(66,45)"/>
<path d="M0 0 C3.4375 0.75 3.4375 0.75 5.4375 2.75 C5.5625 5.875 5.5625 5.875 5.4375 8.75 C1.4775 10.73 1.4775 10.73 -2.5625 12.75 C-1.9025 13.69875 -1.2425 14.6475 -0.5625 15.625 C1.4375 18.75 1.4375 18.75 1.4375 20.75 C2.0975 20.75 2.7575 20.75 3.4375 20.75 C3.4375 21.41 3.4375 22.07 3.4375 22.75 C0.08129729 21.36122646 -1.63548728 19.83322035 -3.5625 16.75 C-3.5625 16.09 -3.5625 15.43 -3.5625 14.75 C-4.2225 14.75 -4.8825 14.75 -5.5625 14.75 C-5.706875 15.53375 -5.85125 16.3175 -6 17.125 C-6.5625 19.75 -6.5625 19.75 -7.5625 21.75 C-8.2225 21.75 -8.8825 21.75 -9.5625 21.75 C-8.20996536 15.29945018 -6.53189767 9.03894321 -4.5625 2.75 C-5.2225 2.42 -5.8825 2.09 -6.5625 1.75 C-3.5625 -0.25 -3.5625 -0.25 0 0 Z " fill="#EAC689" transform="translate(150.5625,44.25)"/>
<path d="M0 0 C0.99 0 1.98 0 3 0 C2.690625 1.11375 2.38125 2.2275 2.0625 3.375 C0.84199336 8.20509012 0.38600363 13.04290069 0 18 C0.66 18.33 1.32 18.66 2 19 C0.0625 19.5625 0.0625 19.5625 -2 20 C-3 19 -3 19 -3.0625 15.4375 C-3.041875 14.303125 -3.02125 13.16875 -3 12 C-4.32 12 -5.64 12 -7 12 C-7.268125 12.928125 -7.53625 13.85625 -7.8125 14.8125 C-8.91148371 17.76240366 -9.62418561 19.05615186 -12 21 C-11.44271087 17.65626525 -10.64826111 14.96687001 -9 12 C-9.99 12 -10.98 12 -12 12 C-12 11.34 -12 10.68 -12 10 C-11.13375 9.835 -10.2675 9.67 -9.375 9.5 C-5.21086854 7.64927491 -3.81604556 5.42869864 -1.39453125 1.6796875 C-0.93433594 1.12539063 -0.47414062 0.57109375 0 0 Z " fill="#E4B463" transform="translate(199,45)"/>
<path d="M0 0 C4.62 0 9.24 0 14 0 C14 0.33 14 0.66 14 1 C12.02 1 10.04 1 8 1 C6.22850751 7.9796804 4.52487264 14.96212627 3 22 C2.01 21.67 1.02 21.34 0 21 C0.60875755 16.39583374 1.84722956 12.43516676 3.5625 8.125 C4.24505859 6.39636719 4.24505859 6.39636719 4.94140625 4.6328125 C5.29074219 3.76398437 5.64007813 2.89515625 6 2 C3.69 2 1.38 2 -1 2 C-0.67 1.34 -0.34 0.68 0 0 Z " fill="#E4B25E" transform="translate(178,45)"/>
<path d="M0 0 C0.99 0 1.98 0 3 0 C2.690625 0.928125 2.38125 1.85625 2.0625 2.8125 C0.6216844 7.77871546 0.35305964 12.86205306 0 18 C0.66 18.33 1.32 18.66 2 19 C1.01 19 0.02 19 -1 19 C-1.33 16.36 -1.66 13.72 -2 11 C-2.99 11 -3.98 11 -5 11 C-5.38344159 8.3925972 -5.374232 6.61936847 -3.9921875 4.33203125 C-2.6875 2.6875 -2.6875 2.6875 0 0 Z " fill="#EED09D" transform="translate(116,45)"/>
<path d="M0 0 C2.5 0.125 2.5 0.125 3.5 1.125 C3.76431926 3.77700323 3.96874867 6.40392965 4.125 9.0625 C4.1765625 9.80435547 4.228125 10.54621094 4.28125 11.31054688 C4.62437576 16.87624849 4.62437576 16.87624849 3.5 19.125 C2.84 19.125 2.18 19.125 1.5 19.125 C1.43941406 18.29355469 1.37882813 17.46210937 1.31640625 16.60546875 C1.23261719 15.51878906 1.14882812 14.43210937 1.0625 13.3125 C0.98128906 12.23355469 0.90007812 11.15460937 0.81640625 10.04296875 C0.59787539 7.06510095 0.59787539 7.06510095 -0.5 4.125 C-0.17 3.465 0.16 2.805 0.5 2.125 C-0.16 2.125 -0.82 2.125 -1.5 2.125 C-1.83 3.445 -2.16 4.765 -2.5 6.125 C-3.16 6.125 -3.82 6.125 -4.5 6.125 C-3.43143596 0.1715718 -3.43143596 0.1715718 0 0 Z " fill="#E3B25E" transform="translate(127.5,44.875)"/>
<path d="M0 0 C0.99 0 1.98 0 3 0 C2.690625 1.11375 2.38125 2.2275 2.0625 3.375 C0.84199336 8.20509012 0.38600363 13.04290069 0 18 C0.66 18.33 1.32 18.66 2 19 C1.01 19 0.02 19 -1 19 C-1 16.36 -1 13.72 -1 11 C-2.32 11 -3.64 11 -5 11 C-4.54917531 9.53932801 -4.08906463 8.08151968 -3.625 6.625 C-3.36976563 5.81289063 -3.11453125 5.00078125 -2.8515625 4.1640625 C-2 2 -2 2 0 0 Z " fill="#E7BD74" transform="translate(199,45)"/>
<path d="M0 0 C1.02891637 3.0867491 0.98947742 4.13934736 0.44140625 7.23046875 C0.30283203 8.03291016 0.16425781 8.83535156 0.02148438 9.66210938 C-0.12998047 10.49548828 -0.28144531 11.32886719 -0.4375 12.1875 C-0.58509766 13.03248047 -0.73269531 13.87746094 -0.88476562 14.74804688 C-1.24996003 16.8331891 -1.6241243 18.91675673 -2 21 C-2.66 21 -3.32 21 -4 21 C-4 17.33333333 -4 13.66666667 -4 10 C-4.99 11.32 -5.98 12.64 -7 14 C-6.44010697 10.00987629 -5.24330232 7.4744948 -2.9375 4.1875 C-2.38964844 3.39730469 -1.84179688 2.60710938 -1.27734375 1.79296875 C-0.64505859 0.90544922 -0.64505859 0.90544922 0 0 Z " fill="#E3B25E" transform="translate(139,45)"/>
<path d="M0 0 C0.99 0 1.98 0 3 0 C2.51358785 6.84817102 1.64006048 13.33042073 0 20 C1.98 19.34 3.96 18.68 6 18 C5.67 18.99 5.34 19.98 5 21 C2.625 21.625 2.625 21.625 0 22 C-2 20 -2 20 -2.25 16.75 C-2.00632424 13.0948636 -1.14887189 10.44661567 0 7 C0.07522969 4.66787973 0.09325876 2.3314689 0 0 Z " fill="#E5B768" transform="translate(162,45)"/>
<path d="M0 0 C1.65 0.33 3.3 0.66 5 1 C5.6875 2.8125 5.6875 2.8125 6 5 C4.9375 6.6875 4.9375 6.6875 3 8 C-0.1875 8.6875 -0.1875 8.6875 -3 9 C-2.01 6.03 -1.02 3.06 0 0 Z " fill="#FCF8F2" transform="translate(149,46)"/>
<path d="M0 0 C0.66 0 1.32 0 2 0 C1.86722656 0.59167969 1.73445312 1.18335938 1.59765625 1.79296875 C1.23259935 3.42639853 0.87075561 5.06054893 0.51171875 6.6953125 C0.15059264 8.32175835 -0.23021805 9.943894 -0.625 11.5625 C-1.1634598 15.06248873 -1.05999507 18.46029079 -1 22 C-1.99 21.67 -2.98 21.34 -4 21 C-5.63204491 16.04522891 -4.18005109 12.41345213 -2.5625 7.6875 C-2.31951172 6.94693359 -2.07652344 6.20636719 -1.82617188 5.44335938 C-1.22800422 3.62539885 -0.61542141 1.81219245 0 0 Z " fill="#E4B462" transform="translate(173,45)"/>
<path d="M0 0 C0.33 0.99 0.66 1.98 1 3 C2.32 2.67 3.64 2.34 5 2 C5.33 5.3 5.66 8.6 6 12 C5.01 11.67 4.02 11.34 3 11 C3 8.69 3 6.38 3 4 C1.060491 4.19188156 1.060491 4.19188156 -1 5 C-2.34231442 6.83983424 -2.34231442 6.83983424 -3.25 9.0625 C-3.58515625 9.79597656 -3.9203125 10.52945313 -4.265625 11.28515625 C-4.62914063 12.13400391 -4.62914063 12.13400391 -5 13 C-6.39195915 8.82412255 -4.82323219 6.86525224 -3 3 C-3.66 2.67 -4.32 2.34 -5 2 C-3.35 1.34 -1.7 0.68 0 0 Z " fill="#E1AB50" transform="translate(110,53)"/>
<path d="M0 0 C0.66 0.33 1.32 0.66 2 1 C1.74605469 1.68964844 1.49210938 2.37929688 1.23046875 3.08984375 C-0.94501435 9.02964593 -3.03977788 14.98568214 -5 21 C-5.66 21 -6.32 21 -7 21 C-5.62820313 13.51747162 -3.07836721 6.94395046 0 0 Z " fill="#E3B15D" transform="translate(148,45)"/>
<path d="M0 0 C1.32 0.33 2.64 0.66 4 1 C1.525 6.94 1.525 6.94 -1 13 C-1.33 13 -1.66 13 -2 13 C-1.9278125 12.38511719 -1.855625 11.77023438 -1.78125 11.13671875 C-1.64203125 9.92435547 -1.64203125 9.92435547 -1.5 8.6875 C-1.4071875 7.88699219 -1.314375 7.08648437 -1.21875 6.26171875 C-0.95186537 3.88103445 -0.95186537 3.88103445 -1 1 C-0.67 0.67 -0.34 0.34 0 0 Z " fill="#E2AD54" transform="translate(66,45)"/>
<path d="M0 0 C1 2 1 2 0.44140625 4.1640625 C0.15136719 4.97617187 -0.13867188 5.78828125 -0.4375 6.625 C-0.72496094 7.44226562 -1.01242188 8.25953125 -1.30859375 9.1015625 C-1.65083984 10.04128906 -1.65083984 10.04128906 -2 11 C-3.32 10.34 -4.64 9.68 -6 9 C-4.02 6.03 -2.04 3.06 0 0 Z " fill="#FCF8F0" transform="translate(65,48)"/>
<path d="M0 0 C0.99 0 1.98 0 3 0 C2.88610125 1.79240663 2.75852313 3.58394835 2.625 5.375 C2.52058594 6.87160156 2.52058594 6.87160156 2.4140625 8.3984375 C2 11 2 11 0 13 C-1.02820607 9.91538178 -0.97753684 8.52108169 -0.5625 5.375 C-0.46066406 4.57835937 -0.35882813 3.78171875 -0.25390625 2.9609375 C-0.17011719 2.31382813 -0.08632812 1.66671875 0 1 C0 0.67 0 0.34 0 0 Z " fill="#E2AF58" transform="translate(162,45)"/>
<path d="M0 0 C0.33 0 0.66 0 1 0 C1.33 3.3 1.66 6.6 2 10 C1.01 9.67 0.02 9.34 -1 9 C-1.80967438 6.08517222 -2.21845993 4.53886783 -1.0625 1.6875 C-0.711875 1.130625 -0.36125 0.57375 0 0 Z " fill="#E2AF57" transform="translate(170,57)"/>
<path d="M0 0 C1.70884005 1.62339805 3.37446717 3.29319053 5 5 C5 5.66 5 6.32 5 7 C5.66 7 6.32 7 7 7 C7 7.66 7 8.32 7 9 C3.64564078 7.61198929 1.88709697 6.11371 0 3 C0 2.01 0 1.02 0 0 Z " fill="#E3B15C" transform="translate(147,58)"/>
<path d="M0 0 C0.33 0 0.66 0 1 0 C1 2.64 1 5.28 1 8 C0.01 7.67 -0.98 7.34 -2 7 C-1.125 1.125 -1.125 1.125 0 0 Z " fill="#E6B86C" transform="translate(180,59)"/>
<path d="M0 0 C3.6 5.4 3.6 5.4 5 8 C4.67 8.66 4.34 9.32 4 10 C0.38860104 6.12435233 0.38860104 6.12435233 -1 4 C-0.8125 1.625 -0.8125 1.625 0 0 Z " fill="#E7BD75" transform="translate(38,60)"/>
<path d="M0 0 C1 2 1 2 0.0625 5.125 C-0.288125 6.07375 -0.63875 7.0225 -1 8 C-1.99 8 -2.98 8 -4 8 C-2.87548273 5.0280615 -1.77706209 2.66559313 0 0 Z " fill="#FCF7EF" transform="translate(198,48)"/>
<path d="M0 0 C3.77126791 1.01180358 4.78414572 1.67621858 7 5 C3.7 4.01 0.4 3.02 -3 2 C-2.01 1.34 -1.02 0.68 0 0 Z " fill="#E4B563" transform="translate(81,17)"/>
</svg>
